#!OML:ASF H:\Terrain\Patient Classification 1\Terrain2\Thursday\justin.ASF
:FULLY-SPECIFIED
:DEGREES
2197
root 19.3215 17.2569 -21.5986 -1.60046 -7.81517 -10.2717
lowerback 13.3945 0.101267 12.4197
upperback 4.84448 1.86422 5.61277
thorax -2.12593 0.953857 -1.30674
lowerneck -10.663 -1.76656 -9.01604
upperneck 37.0385 -2.20054 5.096
head 14.7617 -1.53084 3.39875
rclavicle 1.78906e-015 3.81667e-014
rhumerus -30.9249 -2.39372 -80.7412
rradius 34.9017
rwrist -12.3549
rhand -23.9076 11.3649
rfingers 7.12502
rthumb 2.56663 -18.5994
lclavicle 1.78906e-015 3.81667e-014
lhumerus -36.7762 9.65968 83.1114
lradius 33.9922
lwrist 0.982057
lhand -18.3422 15.7817
lfingers 7.12502
lthumb 7.94004 45.6126
rfemur 2.32793 -7.66908 34.8063
rtibia 21.5366
rfoot -18.8081 5.4309
rtoes 15.8456
lfemur -67.9102 11.6294 -8.9137
ltibia 94.509
lfoot -15.6099 -17.7283
ltoes -14.7343
2198
root 19.3131 17.2591 -21.5633 -1.49677 -7.59824 -10.5614
lowerback 13.3605 0.00640582 12.4877
upperback 4.81783 1.75212 5.79807
thorax -2.15181 0.895314 -1.13088
lowerneck -10.67 -1.74047 -8.97516
upperneck 37.0012 -2.09519 4.88759
head 14.7335 -1.50635 3.31771
rclavicle -2.62396e-014 -2.94201e-014
rhumerus -30.8668 -1.93738 -80.7726
rradius 35.0047
rwrist -12.605
rhand -24.2827 9.45262
rfingers 7.12502
rthumb 2.20433 -20.5157
lclavicle -2.62396e-014 -2.94201e-014
lhumerus -36.7813 10.29 83.0223
lradius 33.6127
lwrist 0.829881
lhand -18.5557 16.0192
lfingers 7.12502
lthumb 7.73397 45.8577
rfemur 2.45427 -7.6949 35.2029
rtibia 21.2949
rfoot -18.8556 5.03131
rtoes 14.2444
lfemur -68.4115 11.2689 -8.73456
ltibia 93.0819
lfoot -15.4866 -17.2961
ltoes -16.8245
2199
root 19.3102 17.2527 -21.5241 -1.46479 -7.69114 -10.8919
lowerback 13.4887 0.0515347 12.6125
upperback 4.82434 1.85446 5.99581
thorax -2.2048 0.941701 -1.00503
lowerneck -10.8465 -1.77925 -9.12207
upperneck 37.1485 -2.07021 4.8142
head 14.8471 -1.52711 3.32276
rclavicle 5.76476e-015 7.4743e-014
rhumerus -30.894 -1.91326 -80.5825
rradius 35.0729
rwrist -12.3349
rhand -23.3187 7.91871
rfingers 7.12502
rthumb 3.13532 -22.038
lclavicle 5.76476e-015 7.4743e-014
lhumerus -36.752 10.7122 83.0281
lradius 33.1995
lwrist 0.57681
lhand -19.2591 17.4208
lfingers 7.12502
lthumb 7.05506 47.2832
rfemur 2.75641 -7.56729 35.5624
rtibia 20.9457
rfoot -18.798 5.02638
rtoes 14.1583
lfemur -68.7048 11.2005 -8.44362
ltibia 91.6778
lfoot -15.0795 -16.8126
ltoes -17.917
2200
root 19.3142 17.2563 -21.4818 -1.40614 -8.21916 -10.8638
lowerback 13.6001 0.272734 12.6402
upperback 4.8057 2.16564 5.9175
thorax -2.24743 1.09234 -1.15011
lowerneck -11.0934 -1.89891 -9.56378
upperneck 37.5024 -2.23588 5.15787
head 15.1076 -1.62164 3.53751
rclavicle -2.74323e-014 -3.81667e-014
rhumerus -31.0026 -2.05896 -80.5495
rradius 35.1648
rwrist -12.0811
rhand -22.3443 9.70136
rfingers 7.12502
rthumb 4.07627 -20.2394
lclavicle -2.74323e-014 -3.81667e-014
lhumerus -36.8386 10.6166 82.9646
lradius 32.9704
lwrist 0.582024
lhand -20.2553 19.2354
lfingers 7.12502
lthumb 6.09338 49.1278
rfemur 2.98228 -7.40869 35.3841
rtibia 20.7852
rfoot -18.8335 5.59641
rtoes 14.3423
lfemur -68.8364 11.4522 -8.53061
ltibia 90.2381
lfoot -14.3466 -16.2808
ltoes -18.0113
2201
root 19.305 17.2588 -21.4245 -1.57971 -7.60562 -10.6379
lowerback 13.4326 0.146963 12.5773
upperback 4.85254 1.95525 5.76446
thorax -2.12623 0.998676 -1.24465
lowerneck -10.883 -1.85339 -8.97612
upperneck 37.2996 -2.26747 4.95363
head 14.9456 -1.57472 3.33158
rclavicle -1.59028e-014 -1.98785e-014
rhumerus -30.8649 -2.39677 -80.595
rradius 35.0296
rwrist -11.8815
rhand -22.0082 11.154
rfingers 7.12502
rthumb 4.40081 -18.7803
lclavicle -1.59028e-014 -1.98785e-014
lhumerus -36.7746 10.2358 82.9545
lradius 32.8624
lwrist 0.972332
lhand -20.6538 20.5082
lfingers 7.12502
lthumb 5.70863 50.4113
rfemur 3.34056 -7.76449 35.1435
rtibia 20.6433
rfoot -19.0702 5.37834
rtoes 14.2611
lfemur -68.9132 10.6151 -8.86225
ltibia 88.7713
lfoot -13.698 -15.9278
ltoes -17.0829
2202
root 19.3085 17.234 -21.3852 -1.32445 -7.91049 -10.7557
lowerback 13.3355 0.327251 12.8146
upperback 4.8654 2.19798 5.65839
thorax -2.01577 1.1263 -1.51707
lowerneck -11.0201 -1.87646 -9.03102
upperneck 37.1952 -2.36281 5.21432
head 14.9389 -1.58459 3.43486
rclavicle -2.5842e-014 6.36111e-015
rhumerus -30.6474 -2.69578 -80.678
rradius 34.9409
rwrist -11.9474
rhand -21.6308 10.5487
rfingers 7.12502
rthumb 4.76528 -19.3777
lclavicle -2.5842e-014 6.36111e-015
lhumerus -36.4556 10.1686 82.8072
lradius 32.4982
lwrist 0.870021
lhand -20.1696 20.8813
lfingers 7.12502
lthumb 6.17611 50.7713
rfemur 3.29355 -7.44864 35.2482
rtibia 20.5763
rfoot -18.9817 5.59066
rtoes 15.2566
lfemur -69.3735 10.6474 -8.78173
ltibia 87.4268
lfoot -12.8561 -15.4843
ltoes -15.3524
2203
root 19.2945 17.2042 -21.3317 -1.70189 -6.98141 -10.8347
lowerback 13.2714 0.0206212 12.8633
upperback 5.06582 1.76948 5.67867
thorax -1.81351 0.933359 -1.45839
lowerneck -11.1305 -1.90029 -9.11891
upperneck 37.0888 -2.4179 5.37459
head 14.9219 -1.59583 3.50697
rclavicle 2.78299e-015 -1.59028e-014
rhumerus -30.3888 -2.63771 -80.7865
rradius 34.9701
rwrist -12.2277
rhand -21.7022 8.88877
rfingers 7.12502
rthumb 4.69632 -21.0392
lclavicle 2.78299e-015 -1.59028e-014
lhumerus -36.1821 10.6196 82.4972
lradius 31.225
lwrist -1.04153
lhand -21.2755 16.922
lfingers 7.12502
lthumb 5.10832 46.8404
rfemur 3.88822 -7.44162 35.5357
rtibia 20.474
rfoot -19.2055 4.57911
rtoes 15.4996
lfemur -69.2391 9.67468 -8.71928
ltibia 86.065
lfoot -11.9439 -15.3722
ltoes -14.0429
2204
root 19.2872 17.1986 -21.283 -1.86584 -6.45662 -10.7019
lowerback 13.1473 -0.135199 12.6523
upperback 5.17344 1.5074 5.72986
thorax -1.67091 0.813129 -1.25093
lowerneck -11.157 -1.8847 -9.24811
upperneck 36.9907 -2.34114 5.34462
head 14.8758 -1.58204 3.52563
rclavicle -1.49089e-014 -2.62396e-014
rhumerus -30.2308 -2.29253 -80.7995
rradius 35.4503
rwrist -12.2502
rhand -22.3947 4.08193
rfingers 7.12502
rthumb 4.02759 -25.8597
lclavicle -1.49089e-014 -2.62396e-014
lhumerus -36.0883 10.882 82.5486
lradius 30.9277
lwrist -0.944764
lhand -21.3985 16.0016
lfingers 7.12502
lthumb 4.98959 45.9229
rfemur 4.17801 -7.71939 35.4287
rtibia 20.4506
rfoot -19.4292 4.19654
rtoes 15.0482
lfemur -69.1331 9.00322 -8.91802
ltibia 84.5654
lfoot -10.7767 -15.1622
ltoes -13.7913
2205
root 19.2836 17.198 -21.2315 -1.96099 -6.2986 -10.9085
lowerback 13.2827 -0.186322 12.6911
upperback 5.12604 1.48068 5.90337
thorax -1.80199 0.790559 -1.0863
lowerneck -11.0724 -1.86647 -9.40194
upperneck 37.0083 -2.2514 5.26851
head 14.859 -1.5756 3.53509
rclavicle 3.18055e-015 -1.90833e-014
rhumerus -30.437 -1.96852 -80.6832
rradius 35.2902
rwrist -12.5557
rhand -22.7355 4.34711
rfingers 7.12502
rthumb 3.69856 -25.6005
lclavicle 3.18055e-015 -1.90833e-014
lhumerus -36.2553 11.0671 82.6312
lradius 31.5136
lwrist 0.689491
lhand -20.0423 18.7421
lfingers 7.12502
lthumb 6.29902 48.6285
rfemur 4.52393 -7.8124 35.6189
rtibia 20.2776
rfoot -19.5455 4.12912
rtoes 15.1417
lfemur -68.9762 8.71885 -8.74509
ltibia 83.0724
lfoot -9.41471 -14.9091
ltoes -14.5097
2206
root 19.276 17.1811 -21.1901 -1.97498 -6.25406 -11.4718
lowerback 13.669 -0.2598 12.8923
upperback 4.97412 1.50809 6.20369
thorax -2.17338 0.779041 -0.885314
lowerneck -10.9251 -1.79209 -9.61869
upperneck 37.0763 -2.09158 5.24951
head 14.8459 -1.54305 3.59229
rclavicle -2.26615e-014 -2.06736e-014
rhumerus -30.7143 -0.918934 -80.9422
rradius 35.8947
rwrist -14.0116
rhand -23.932 1.80314
rfingers 7.12502
rthumb 2.54302 -28.1614
lclavicle -2.26615e-014 -2.06736e-014
lhumerus -36.6104 11.638 82.4296
lradius 31.3915
lwrist 0.578363
lhand -20.0425 18.6692
lfingers 7.12502
lthumb 6.29874 48.5555
rfemur 4.83826 -7.30437 36.379
rtibia 19.9766
rfoot -19.4709 3.63352
rtoes 15.5268
lfemur -68.9676 8.7019 -8.14228
ltibia 81.6956
lfoot -7.67806 -14.8785
ltoes -13.9757
2207
root 19.2714 17.1622 -21.1394 -2.04237 -6.12199 -11.5448
lowerback 13.7418 -0.260506 12.8772
upperback 4.99379 1.51678 6.2089
thorax -2.19158 0.78309 -0.873459
lowerneck -10.877 -1.79304 -9.52973
upperneck 37.0037 -2.07392 5.1307
head 14.7956 -1.53639 3.52561
rclavicle -2.82274e-014 -6.59965e-014
rhumerus -30.5952 -1.59912 -80.6068
rradius 35.3937
rwrist -12.1004
rhand -22.4706 5.06063
rfingers 7.12502
rthumb 3.95435 -24.8824
lclavicle -2.82274e-014 -6.59965e-014
lhumerus -36.5699 11.8517 82.2441
lradius 31.2398
lwrist 0.207791
lhand -19.8702 18.7266
lfingers 7.12502
lthumb 6.46516 48.608
rfemur 5.24628 -6.84734 36.5905
rtibia 19.6468
rfoot -19.4519 3.09403
rtoes 15.6881
lfemur -68.9076 8.43134 -8.01183
ltibia 80.3926
lfoot -5.72755 -14.692
ltoes -11.2701
2208
root 19.2796 17.1676 -21.0394 -2.22713 -5.77125 -10.9375
lowerback 12.8857 -0.226211 12.7454
upperback 5.30345 1.34188 5.81051
thorax -1.40573 0.750112 -1.18875
lowerneck -10.8652 -1.87005 -9.25981
upperneck 36.7614 -2.2601 5.15198
head 14.6891 -1.5688 3.44913
rclavicle -1.09332e-014 -1.35174e-014
rhumerus -30.4471 -1.91117 -80.9073
rradius 35.4737
rwrist -12.5358
rhand -23.3123 12.2384
rfingers 7.12502
rthumb 3.1415 -17.7182
lclavicle -1.09332e-014 -1.35174e-014
lhumerus -36.2175 11.6702 82.0122
lradius 30.9737
lwrist -0.017304
lhand -19.887 18.4843
lfingers 7.12502
lthumb 6.44892 48.3661
rfemur 5.94838 -7.76782 35.5578
rtibia 19.386
rfoot -19.8301 3.76382
rtoes 15.2372
lfemur -68.5437 7.81315 -8.77077
ltibia 79.2393
lfoot -4.21868 -14.2538
ltoes -9.10741
2209
root 19.2677 17.1594 -21.0185 -2.0669 -5.78893 -11.3567
lowerback 13.2436 -0.182601 13.0179
upperback 5.16876 1.51452 5.85647
thorax -1.71621 0.817351 -1.31624
lowerneck -10.7267 -1.86629 -9.1967
upperneck 36.6311 -2.35506 5.35674
head 14.6033 -1.57212 3.50473
rclavicle -1.05356e-014 8.74653e-015
rhumerus -30.4133 -2.32785 -80.9312
rradius 35.2593
rwrist -12.3226
rhand -23.1296 7.61251
rfingers 7.12502
rthumb 3.31795 -22.3414
lclavicle -1.05356e-014 8.74653e-015
lhumerus -36.262 11.381 81.8998
lradius 30.8914
lwrist 0.376094
lhand -20.2956 17.8561
lfingers 7.12502
lthumb 6.05442 47.7496
rfemur 6.01141 -7.10749 36.2982
rtibia 19.0253
rfoot -19.6721 2.9678
rtoes 14.3621
lfemur -68.8677 7.94373 -8.36602
ltibia 77.9794
lfoot -2.07211 -14.1543
ltoes -7.51362
2210
root 19.2746 17.1615 -20.9852 -1.8175 -6.55168 -11.3533
lowerback 13.5504 0.121057 12.8667
upperback 5.00304 1.96797 5.87716
thorax -2.01732 1.01751 -1.28318
lowerneck -10.5772 -1.84195 -9.28764
upperneck 36.6696 -2.33648 5.43079
head 14.5877 -1.56886 3.55616
rclavicle 4.77083e-015 6.67916e-014
rhumerus -30.5958 -2.45643 -80.7951
rradius 35.3527
rwrist -12.1348
rhand -22.3975 4.94532
rfingers 7.12502
rthumb 4.02494 -24.9964
lclavicle 4.77083e-015 6.67916e-014
lhumerus -36.566 11.1879 82.0311
lradius 30.7676
lwrist 0.0815771
lhand -21.3597 16.855
lfingers 7.12502
lthumb 5.02701 46.7753
rfemur 6.16999 -6.78901 36.185
rtibia 18.563
rfoot -19.3658 3.37569
rtoes 14.4206
lfemur -69.0389 8.53734 -8.38927
ltibia 76.8505
lfoot -0.463673 -13.7496
ltoes -5.49557
2211
root 19.2559 17.1497 -20.9125 -2.18552 -5.65761 -11.3082
lowerback 13.4947 -0.0947248 12.5749
upperback 5.09636 1.63415 5.99045
thorax -1.94055 0.858081 -0.955866
lowerneck -10.6703 -1.8531 -9.40905
upperneck 36.7029 -2.28582 5.36992
head 14.623 -1.57045 3.56177
rclavicle -2.06736e-014 -4.45278e-014
rhumerus -30.6262 -2.38282 -80.7667
rradius 35.6667
rwrist -12.4918
rhand -21.453 4.97155
rfingers 7.12502
rthumb 4.93697 -24.9509
lclavicle -2.06736e-014 -4.45278e-014
lhumerus -36.6212 11.1483 82.1666
lradius 30.1449
lwrist -1.77202
lhand -22.6796 14.9235
lfingers 7.12502
lthumb 3.7525 44.8702
rfemur 6.92314 -6.93015 36.3345
rtibia 18.1366
rfoot -19.5541 2.32775
rtoes 14.3932
lfemur -68.7747 7.81975 -8.60446
ltibia 75.8641
lfoot 0.674273 -13.7831
ltoes -3.80343
